# xmcd
#
# Track frame offsets:
#	150
#	16745
#	34865
#	52212
#	67295
#	83190
#	102167
#	115962
#	126397
#	140412
#	157507
#	174017
#	196782
#	212637
#	226137
#	242115
#	266607
#	293575
#	313970
#
# Disc length: 4454 seconds
#
# Revision: 0
# Processed by: cddbd v1.4b42PL1 Copyright (c) Steve Scherf et al.
# Submitted via: EasyCDDAExtractor 4.5.0.1
#
DISCID=08116413
DTITLE=Машина Времени и Воскресение - 50 на двоих [CD 1)
DYEAR=2001
DGENRE=Rock and Roll
TTITLE0=Все с начала (А.Романов)
TTITLE1=Я ни разу за морем не был (А.Романов)
TTITLE2=Песня о капитане (А.Макаревич)
TTITLE3=Наш дом (А.Макаревич)
TTITLE4=Поезд (А.Романов)
TTITLE5=Случилось (А.Романов)
TTITLE6=Когда мы сойдем с ума (Е.Маргулис/А.Макаревич)
TTITLE7=Я дам тебе знать (Е.Маргулис/А.Макаревич)
TTITLE8=Крестики нолики (А.Кутиков/А.Макаревич)
TTITLE9=Я тоже был (А.Романов)
TTITLE10=Будь со мной (А.Романов)
TTITLE11=Я привык бродить один (А.Романов)
TTITLE12=Он был старше её (А.Макаревич)
TTITLE13=Однажды мир прогнётся под нас (А.Макаревич)
TTITLE14=Эпоха большой любви (А.Макаревич)
TTITLE15=Когда ты уйдешь (Е.Маргулис)
TTITLE16=Дело дрянь (А.Романов)
TTITLE17=Посмотри как я живу (А.Романов)
TTITLE18=Сон (А.Романов)
EXTD=
EXTT0=
EXTT1=
EXTT2=
EXTT3=
EXTT4=
EXTT5=
EXTT6=
EXTT7=
EXTT8=
EXTT9=
EXTT10=
EXTT11=
EXTT12=
EXTT13=
EXTT14=
EXTT15=
EXTT16=
EXTT17=
EXTT18=
PLAYORDER=
